<?xml version="1.0" encoding="utf-8"?>
<!-- Generator: Adobe Illustrator 26.0.0, SVG Export Plug-In . SVG Version: 6.00 Build 0)  -->
<svg version="1.1" id="Livello_1" xmlns="http://www.w3.org/2000/svg" xmlns:xlink="http://www.w3.org/1999/xlink" x="0px" y="0px"
	 viewBox="0 0 658 512.5" style="enable-background:new 0 0 658 512.5;" xml:space="preserve">
<style type="text/css">
	.st0{fill:#3F3D56;}
	.st1{fill:#E6E6E6;}
	.st2{fill:#FFB6B6;}
	.st3{fill:#2F2E41;}
	.st4{fill:#CACACA;}
	.st5{fill:#2EB086;}
	.st6{opacity:0.2;enable-background:new    ;}
	.st7{fill:#FFFFFF;}
	.st8{fill:#E4E4E4;}
	.st9{font-family:'MyriadPro-Regular';}
	.st10{font-size:12px;}
</style>
<path class="st0" d="M222.7,166.3l-25.1,13.1c-2.7,1.4-6.1,0.4-7.6-2.4c-0.1-0.2-0.2-0.5-0.3-0.8l-9.3-26.7c-3.9-7.6-0.9-17,6.7-21
	c7.6-3.9,17-1,20.9,6.6l16.6,22.8c1.8,2.5,1.3,6-1.2,7.8C223.2,166.1,223,166.2,222.7,166.3z"/>
<path class="st1" d="M189.9,457.4l9.5-6c0.4-5.3,0.6-10.6,0.4-15.9l-4.9,1.3l4.9-3.1c-0.3-6.6-0.9-10.9-0.9-10.9
	s-19.2,12.4-31.4,29.3l2.1,14.3l-5-10c-1.3,2-2.4,4.1-3.4,6.3c-10.1,22-11,43.1-2.2,47.2c8.9,4.1,24.2-10.5,34.3-32.5
	c3-7.1,5-14.6,5.7-22.2L189.9,457.4z"/>
<path class="st1" d="M209.4,478.6l11.2-0.3c3.1-4.3,6-8.8,8.6-13.4l-4.9-1.5l5.7-0.1c3.2-5.8,4.9-9.8,4.9-9.8s-22.8,0.7-42,8.9
	l-5.6,13.3l0.9-11.1c-2.1,1.1-4.2,2.3-6.2,3.6c-20,13.6-31.7,31.2-26.2,39.2c5.5,8.1,26.1,3.5,46.1-10.1c6.3-4.5,11.8-9.9,16.4-16.1
	L209.4,478.6z"/>
<polygon class="st2" points="143,498.4 155.2,498.4 159.8,450.8 143,451.2 "/>
<path class="st3" d="M139.9,494.4l24.1,0h0c8.5,0,15.4,6.9,15.4,15.4v0.5l-39.5,0L139.9,494.4z"/>
<polygon class="st2" points="12.2,403.8 16.6,415.3 62.8,403.6 56.3,386.8 "/>
<path class="st3" d="M14.8,399.5l8.7,22.5l0,0c3.1,7.9-0.9,16.8-8.8,19.9l-0.5,0.2L0,405.2L14.8,399.5z"/>
<path class="st4" d="M-62.2,511.8h334.3c0.7,0,1.2-0.5,1.2-1.2s-0.5-1.2-1.2-1.2c0,0,0,0,0,0H-62.2c-0.7,0-1.2,0.5-1.2,1.2
	C-63.4,511.3-62.8,511.8-62.2,511.8C-62.2,511.8-62.2,511.8-62.2,511.8z"/>
<path class="st5" d="M149,371.4l-8.1,98.6l18.8,6.8L191,377l23.6-99.7l-38.9-16.4L149,371.4z"/>
<path class="st5" d="M144.4,252c0,0-7,12.9-3.9,30.7c3.1,17.8-20,65.4-20,65.4l-96.8,45.8c0,0,4.1,23.1,9.8,24
	c5.6,0.8,113.1-36.6,113.1-36.6l66.4-99.8L144.4,252z"/>
<circle class="st2" cx="220.6" cy="88.6" r="25.7"/>
<path class="st0" d="M211,127.9c0,0-26.9-17.4-27.6-14.1c-0.7,3.3-35.6,24.8-36.8,62.3s2.7,56.7-4.9,75.6s-6.3,23.8-6.3,23.8
	s74.8,23,77.5,15.6c2.7-7.4,1-20,1.7-23.3C215.3,264.6,211.2,136.8,211,127.9z"/>
<path class="st3" d="M205.9,101.3c2.3-0.6,4.7-0.3,7-0.5c8.4-0.7,15.6-8.5,15.7-16.9c-0.1-1.1,0-2.2,0.3-3.3
	c0.8-2.3,3.6-3.3,6.1-3.4c2.5,0,4.9,0.6,7.4,0.2c3.8-0.6,6.8-3.7,8.1-7.3c1.2-3.7,1.1-7.6-0.1-11.2l-1.4,2.3c-1.1-1.4-1.7-3-1.9-4.7
	c-2-0.1-4,0.9-5.1,2.6c-1.5,0.5-1-2.8-2.4-3.6c-0.6-0.2-1.3-0.2-2,0.1c-3.3,0.8-6.6-1.2-9.7-2.7c-5.3-2.6-11.2-3.8-17.1-3.7
	c-3.9,0.1-8,0.8-11.2,3c-2.6,1.9-4.8,4.3-6.5,7.1c-4.4,6.6-8,14-8.7,21.9c-0.6,6.5,0.8,13,3.9,18.7c1.6,3,6.8,13.2,11,12.5
	C204.6,111.4,199.5,103.1,205.9,101.3z"/>
<rect x="131.3" y="349" transform="matrix(0.652 -0.7582 0.7582 0.652 -205.1894 252.6414)" class="st6" width="82.6" height="1.6"/>
<path class="st1" d="M274.9,140.2c-3.9,0-7.1,3.2-7.1,7.1v78.5c0,3.9,3.2,7.1,7.1,7.1h376.1c3.9,0,7.1-3.2,7.1-7.1v-78.5
	c0-3.9-3.2-7.1-7.1-7.1L274.9,140.2z"/>
<path class="st7" d="M277.4,145.7c-2.3,0-4.1,1.8-4.1,4.1v73.5c0,2.3,1.8,4.1,4.1,4.1h371c2.3,0,4.1-1.8,4.1-4.1v-73.5
	c0-2.3-1.8-4.1-4.1-4.1H277.4z"/>
<path class="st1" d="M625.1,207.3c3.7,0,6.6-3,6.6-6.7c0-3.7-3-6.6-6.6-6.6c0,0,0,0,0,0H311.3c-3.7,0-6.6,3-6.6,6.7
	c0,3.7,3,6.6,6.6,6.6H625.1z"/>
<path class="st5" d="M446.3,178.3c3.7,0,6.7-3,6.7-6.6c0-3.7-3-6.7-6.6-6.7c0,0,0,0,0,0h-135c-3.7,0-6.7,3-6.7,6.6
	c0,3.7,3,6.7,6.6,6.7c0,0,0,0,0,0H446.3z"/>
<path class="st1" d="M344.2,267c-2.8,0-5,2.2-5,5v55.6c0,2.8,2.2,5,5,5h266.1c2.8,0,5-2.2,5-5V272c0-2.8-2.2-5-5-5H344.2z"/>
<path class="st7" d="M346,270.9c-1.6,0-2.9,1.3-2.9,2.9v52c0,1.6,1.3,2.9,2.9,2.9h262.5c1.6,0,2.9-1.3,2.9-2.9v-52
	c0-1.6-1.3-2.9-2.9-2.9H346z"/>
<path class="st1" d="M592.1,314.4c2.6,0,4.7-2.1,4.7-4.7c0-2.6-2.1-4.7-4.7-4.7c0,0,0,0,0,0H370c-2.6,0-4.7,2.1-4.7,4.7
	c0,2.6,2.1,4.7,4.7,4.7H592.1z"/>
<path class="st8" d="M465.6,294c2.6,0,4.7-2.1,4.7-4.7c0-2.6-2.1-4.7-4.7-4.7c0,0,0,0,0,0H370c-2.6,0-4.7,2.1-4.7,4.7
	c0,2.6,2.1,4.7,4.7,4.7c0,0,0,0,0,0H465.6z"/>
<path class="st1" d="M329.8,0c-2.8,0-5,2.2-5,5v55.6c0,2.8,2.2,5,5,5H596c2.8,0,5-2.2,5-5V5c0-2.8-2.2-5-5-5H329.8z"/>
<path class="st7" d="M331.6,3.9c-1.6,0-2.9,1.3-2.9,2.9v52c0,1.6,1.3,2.9,2.9,2.9h262.5c1.6,0,2.9-1.3,2.9-2.9v-52
	c0-1.6-1.3-2.9-2.9-2.9H331.6z"/>
<path class="st1" d="M577.7,47.4c2.6,0,4.7-2.1,4.7-4.7c0-2.6-2.1-4.7-4.7-4.7c0,0,0,0,0,0H355.6c-2.6,0-4.7,2.1-4.7,4.7
	c0,2.6,2.1,4.7,4.7,4.7H577.7z"/>
<path class="st8" d="M451.2,27c2.6,0,4.7-2.1,4.7-4.7c0-2.6-2.1-4.7-4.7-4.7c0,0,0,0,0,0h-95.6c-2.6,0-4.7,2.1-4.7,4.7
	c0,2.6,2.1,4.7,4.7,4.7c0,0,0,0,0,0H451.2z"/>
<path class="st2" d="M270,201.7c-0.6,0.4-1.1,0.8-1.7,1.2l-59.5-16.6l-3.8-14.5l-22.7,2.8l4.2,26.4c0.7,4.4,4.2,7.8,8.6,8.3
	l69.7,8.9c3,6.6,10.7,9.5,17.3,6.6c6.6-3,9.5-10.7,6.6-17.3s-10.7-9.5-17.3-6.6C270.9,201.2,270.5,201.4,270,201.7L270,201.7z"/>
<path class="st0" d="M206.8,185.9l-28.1,3.6c-3.1,0.4-5.9-1.8-6.3-4.8c0-0.3-0.1-0.5,0-0.8l0.5-28.2c-1.1-8.5,5-16.3,13.5-17.4
	c8.5-1,16.2,5,17.3,13.4l7.7,27.1c0.8,3-0.9,6.1-3.9,6.9C207.3,185.8,207,185.8,206.8,185.9L206.8,185.9z"/>
<text transform="matrix(1 0 0 1 296.6844 175.1404)" class="st7 st9 st10">     urls.com/ajsiisd</text>
<path class="st2" d="M287.5,159.4c-0.4,0.5-0.8,1.1-1.1,1.7l-61.6,5l-8.5-12.3L196,164.2l13,23.3c2.2,3.9,6.6,5.9,10.9,4.9
	l68.5-15.7c5,5.2,13.3,5.3,18.5,0.2c5.2-5,5.3-13.3,0.2-18.5c-5-5.2-13.3-5.3-18.5-0.2C288.2,158.5,287.9,158.9,287.5,159.4
	L287.5,159.4z"/>
<text transform="matrix(1 0 0 1 334 204)" class="st7 st9 st10">https://www.urls.com/ajsiisdhabdiuaboudbondiejphasihas</text>
<circle class="st5" cx="321.6" cy="200.6" r="17"/>
</svg>
