<?xml version="1.0" encoding="utf-8"?>
<!-- Generator: Adobe Illustrator 26.0.0, SVG Export Plug-In . SVG Version: 6.00 Build 0)  -->
<svg version="1.1" id="Livello_1" xmlns="http://www.w3.org/2000/svg" xmlns:xlink="http://www.w3.org/1999/xlink" x="0px" y="0px"
	 viewBox="0 0 658 512.5" style="enable-background:new 0 0 658 512.5;" xml:space="preserve">
<style type="text/css">
	.st0{fill:#3F3D56;}
	.st1{fill:#E6E6E6;}
	.st2{fill:#FFB6B6;}
	.st3{fill:#2F2E41;}
	.st4{fill:#CACACA;}
	.st5{fill:#11d596;}
	.st6{opacity:0.2;enable-background:new    ;}
	.st7{fill:#FFFFFF;}
	.st8{fill:#E4E4E4;}
	.st9{font-family:'ArialMT';}
	.st10{font-size:13.2674px;}
	.st11{fill:#7A7A7A;}
</style>
<path class="st0" d="M230,188.8l-23.5,12.3c-2.6,1.3-5.7,0.3-7.1-2.2c-0.1-0.2-0.2-0.5-0.3-0.7l-8.7-24.9
	c-3.7-7.2-0.9-15.9,6.3-19.6c7.1-3.7,15.9-0.9,19.6,6.2l15.5,21.3c1.7,2.3,1.2,5.6-1.2,7.3C230.5,188.5,230.3,188.7,230,188.8z"/>
<path class="st1" d="M199.3,461.1l8.9-5.6c0.4-5,0.5-9.9,0.4-14.9l-4.6,1.2l4.5-2.9c-0.3-6.1-0.8-10.2-0.8-10.2
	s-17.9,11.6-29.3,27.4l1.9,13.3l-4.6-9.3c-1.2,1.9-2.3,3.9-3.2,5.9c-9.4,20.6-10.3,40.3-2,44.1s22.6-9.8,32.1-30.4
	c2.8-6.6,4.6-13.6,5.4-20.8L199.3,461.1z"/>
<path class="st1" d="M217.5,480.9l10.5-0.3c2.9-4,5.6-8.2,8-12.6l-4.5-1.4l5.4-0.1c3-5.4,4.6-9.1,4.6-9.1s-21.4,0.7-39.3,8.3
	l-5.2,12.4l0.8-10.4c-2,1-3.9,2.2-5.8,3.4c-18.7,12.7-29.7,29.2-24.6,36.7s24.4,3.3,43.1-9.4c5.9-4.2,11-9.3,15.3-15L217.5,480.9z"
	/>
<polygon class="st2" points="155.4,499.5 166.9,499.5 171.2,454.9 155.4,455.2 "/>
<path class="st3" d="M152.5,495.7h22.6l0,0c7.9,0,14.4,6.4,14.4,14.4v0.5h-37V495.7z"/>
<polygon class="st2" points="33.1,411 37.2,421.7 80.4,410.8 74.3,395 "/>
<path class="st3" d="M35.5,406.9l8.2,21.1l0,0c2.9,7.4-0.8,15.7-8.2,18.6l-0.4,0.2l-13.4-34.5L35.5,406.9z"/>
<path class="st4" d="M-36.5,512h312.7c0.6,0,1.1-0.5,1.1-1.1s-0.5-1.1-1.1-1.1l0,0H-36.5c-0.6,0-1.1,0.5-1.1,1.1S-37.1,512-36.5,512
	L-36.5,512z"/>
<path class="st5" d="M161,380.7l-7.6,92.3l17.6,6.3l29.3-93.4l22.1-93.3L186,277.3L161,380.7z"/>
<path class="st5" d="M156.8,269c0,0-6.6,12.1-3.7,28.7s-18.7,61.1-18.7,61.1l-90.5,42.8c0,0,3.9,21.6,9.2,22.4
	s105.8-34.2,105.8-34.2l62.2-93.3L156.8,269z"/>
<circle class="st2" cx="228" cy="116.1" r="24.1"/>
<path class="st0" d="M219,152.9c0,0-25.2-16.3-25.9-13.2s-33.3,23.2-34.4,58.3s2.5,53-4.5,70.8s-5.9,22.3-5.9,22.3
	s69.9,21.5,72.5,14.6s0.9-18.7,1.6-21.8S219.2,161.2,219,152.9z"/>
<path class="st3" d="M214.3,127.9c2.1-0.6,4.4-0.3,6.6-0.5c7.9-0.6,14.6-7.9,14.7-15.8c-0.1-1,0-2.1,0.3-3.1
	c0.8-2.2,3.4-3.1,5.7-3.2s4.6,0.5,6.9,0.2c3.5-0.6,6.4-3.4,7.6-6.8c1.1-3.4,1.1-7.1-0.1-10.5l-1.3,2.1c-1-1.3-1.6-2.8-1.8-4.4
	c-1.9-0.1-3.7,0.8-4.8,2.4c-1.4,0.5-1-2.6-2.3-3.4c-0.6-0.2-1.3-0.2-1.8,0.1c-3.1,0.7-6.2-1.1-9-2.5c-5-2.4-10.5-3.6-16-3.5
	c-3.7,0.1-7.4,0.8-10.5,2.8c-2.4,1.8-4.5,4.1-6.1,6.6c-4.1,6.2-7.5,13.1-8.2,20.5c-0.5,6.1,0.7,12.1,3.7,17.5
	c1.5,2.8,6.4,12.3,10.3,11.7C213.1,137.4,208.3,129.6,214.3,127.9z"/>
<rect x="144.5" y="359.7" transform="matrix(0.652 -0.7582 0.7582 0.652 -209.5849 264.2909)" class="st6" width="77.3" height="1.5"/>
<path class="st1" d="M278.8,164.4c-3.6,0-6.6,3.5-6.6,7.7V258c0,4.2,3,7.7,6.6,7.7h351.8c3.6,0,6.6-3.5,6.6-7.7v-85.9
	c0-4.2-3-7.7-6.6-7.7H278.8z"/>
<path class="st7" d="M281.2,170.4c-2.1,0-3.8,2-3.8,4.4v80.3c0,2.5,1.7,4.4,3.8,4.4h347.1c2.1,0,3.8-2,3.8-4.4v-80.3
	c0-2.5-1.7-4.4-3.8-4.4H281.2z"/>
<path class="st1" d="M608.4,200c3.4,0,6.2-2.8,6.2-6.2s-2.8-6.2-6.2-6.2l0,0H314.8c-3.4,0-6.2,2.8-6.2,6.3c0,3.4,2.8,6.2,6.2,6.2
	h293.5V200z"/>
<path class="st5" d="M502.4,248.9c2.6,0,4.8-3.3,4.8-7.3s-2.1-7.3-4.8-7.3l0,0h-96.9c-2.6,0-4.8,3.3-4.8,7.3s2.1,7.3,4.8,7.3l0,0
	H502.4z"/>
<path class="st1" d="M343.7,283c-2.6,0-4.7,2.1-4.7,4.7v52c0,2.6,2.1,4.7,4.7,4.7h249c2.6,0,4.7-2.1,4.7-4.7v-52
	c0-2.6-2.1-4.7-4.7-4.7H343.7z"/>
<path class="st7" d="M345.4,286.6c-1.5,0-2.7,1.2-2.7,2.7V338c0,1.5,1.2,2.7,2.7,2.7H591c1.5,0,2.7-1.2,2.7-2.7v-48.6
	c0-1.5-1.2-2.7-2.7-2.7L345.4,286.6L345.4,286.6z"/>
<path class="st1" d="M575.6,327.3c2.4,0,4.4-2,4.4-4.4s-2-4.4-4.4-4.4l0,0H367.8c-2.4,0-4.4,2-4.4,4.4s2,4.4,4.4,4.4H575.6z"/>
<path class="st8" d="M457.2,308.2c2.4,0,4.4-2,4.4-4.4s-2-4.4-4.4-4.4l0,0h-89.4c-2.4,0-4.4,2-4.4,4.4s2,4.4,4.4,4.4l0,0H457.2z"/>
<path class="st1" d="M330.2,33.2c-2.6,0-4.7,2.1-4.7,4.7v52c0,2.6,2.1,4.7,4.7,4.7h249c2.6,0,4.7-2.1,4.7-4.7v-52
	c0-2.6-2.1-4.7-4.7-4.7H330.2z"/>
<path class="st7" d="M331.9,36.8c-1.5,0-2.7,1.2-2.7,2.7v48.6c0,1.5,1.2,2.7,2.7,2.7h245.6c1.5,0,2.7-1.2,2.7-2.7V39.5
	c0-1.5-1.2-2.7-2.7-2.7H331.9z"/>
<path class="st1" d="M562.1,77.6c2.4,0,4.4-2,4.4-4.4s-2-4.4-4.4-4.4l0,0H354.3c-2.4,0-4.4,2-4.4,4.4s2,4.4,4.4,4.4H562.1z"/>
<path class="st8" d="M443.7,58.4c2.4,0,4.4-2,4.4-4.4s-2-4.4-4.4-4.4l0,0h-89.4c-2.4,0-4.4,2-4.4,4.4s2,4.4,4.4,4.4l0,0H443.7z"/>
<path class="st2" d="M274.2,221.9c-0.5,0.3-1.1,0.7-1.6,1.1L217,207.5l-3.5-13.6l-21.2,2.6l3.9,24.7c0.6,4.1,3.9,7.3,8,7.8l65.2,8.4
	c2.8,6.2,10,8.9,16.2,6.2c6.2-2.8,8.9-10,6.2-16.2c-2.8-6.2-10-8.9-16.2-6.2C275.1,221.4,274.7,221.6,274.2,221.9L274.2,221.9z"/>
<path class="st0" d="M215.1,207.1l-26.3,3.4c-2.9,0.4-5.5-1.7-5.9-4.5c0-0.3,0-0.5,0-0.8l0.5-26.4c-1-8,4.7-15.3,12.7-16.2
	c7.9-1,15.2,4.6,16.2,12.6l7.2,25.3c0.8,2.8-0.8,5.7-3.6,6.5C215.6,207,215.3,207,215.1,207.1L215.1,207.1z"/>
<text transform="matrix(1 0 0 1 389.0683 245.9024)" class="st7 st9 st10">     urls.com/short</text>
<text transform="matrix(1 0 0 1 320.45 198.6705)" class="st11 st9 st10">https://www.urls.com/veryveryveryveryongURL</text>
<circle class="st0" cx="314.9" cy="193.9" r="6.2"/>
<path class="st2" d="M296.5,187.3c-0.4,0.5-0.8,1-1.1,1.6l-57.6,4.6l-8-11.5l-19,9.8l12.2,21.8c2,3.6,6.2,5.5,10.2,4.5l64.1-14.7
	c4.7,4.8,12.5,4.9,17.3,0.2s4.9-12.5,0.2-17.3c-4.7-4.8-12.5-4.9-17.3-0.2C297.1,186.5,296.8,186.9,296.5,187.3L296.5,187.3z"/>
<g>
	<path class="st1" d="M459.9,226.7L459.9,226.7c-0.9,0-1.6-0.7-1.6-1.6v-24.9c0-0.9,0.7-1.6,1.6-1.6h0.1c0.9,0,1.6,0.7,1.6,1.6v24.9
		C461.5,226,460.8,226.7,459.9,226.7z"/>
	<path class="st1" d="M456.1,223.7h7.6c0.4,0,0.6,0.7,0.3,1.1l-3.8,5.5c-0.2,0.3-0.5,0.3-0.7,0l-3.8-5.5
		C455.4,224.4,455.6,223.7,456.1,223.7z"/>
</g>
</svg>
